<svg width="36" height="36" viewBox="0 0 36 36" fill="none" xmlns="http://www.w3.org/2000/svg">
<path d="M23.5091 20.1969C23.0896 22.823 20.9694 24.4556 17.9719 24.4556C14.1881 24.4556 11.7437 21.6622 11.7437 17.3402C11.7437 13.2555 14.1511 10.7229 18.0274 10.7229C20.7683 10.7229 22.8223 12.2461 23.259 14.6034L23.3119 14.8801H28.4614L28.4111 14.498C27.7388 9.33145 23.611 5.86072 18.1426 5.86072H17.9758C14.8313 5.86072 11.9462 7.02422 9.85122 9.13643C7.71916 11.2869 6.56777 14.2516 6.61673 17.4746C6.57438 20.8004 7.75092 23.8416 9.92533 26.0394C12.0243 28.1556 14.9041 29.3204 18.038 29.3204H18.1995C23.5369 29.3204 27.8407 25.6138 28.6652 20.3063L28.7261 19.911H23.5568L23.5091 20.1969Z" fill="black"/>
<path d="M17.6653 35.1816C7.92476 35.1816 0 27.2875 0 17.5882C0 7.88886 7.92476 0 17.6653 0C27.4058 0 35.3358 7.89017 35.3358 17.5882C35.3358 27.2862 27.4071 35.1816 17.6653 35.1816ZM17.6653 3.38903C14.8437 3.38903 12.0855 4.22213 9.73945 5.78296C7.39344 7.34379 5.56502 9.56225 4.48542 12.1578C3.40583 14.7533 3.12356 17.6092 3.67431 20.3645C4.22507 23.1197 5.5841 25.6505 7.57955 27.6366C9.57499 29.6228 12.1172 30.9752 14.8847 31.5228C17.6521 32.0704 20.5206 31.7886 23.1271 30.713C25.7337 29.6374 27.9614 27.8163 29.5284 25.4801C31.0954 23.1439 31.9314 20.3975 31.9306 17.5882C31.9264 13.8227 30.4221 10.2126 27.7477 7.55016C25.0733 4.88768 21.4473 3.39023 17.6653 3.3864" fill="black"/>
</svg>
