<svg width="148" height="30" viewBox="0 0 148 30" fill="none" xmlns="http://www.w3.org/2000/svg">
<g clip-path="url(#clip0_151_8117)">
<g clip-path="url(#clip1_151_8117)">
<path d="M18.9978 16.8035C18.6588 18.9884 16.9455 20.3467 14.5232 20.3467C11.4657 20.3467 9.49043 18.0226 9.49043 14.4268C9.49043 11.0284 11.4358 8.92132 14.5682 8.92132C16.783 8.92132 18.4427 10.1886 18.7957 12.1498L18.8384 12.3801H22.9997L22.959 12.0621C22.4157 7.76365 19.0801 4.87607 14.6612 4.87607H14.5264C11.9854 4.87607 9.65406 5.84408 7.96113 7.6014C6.23825 9.39052 5.30783 11.8571 5.3474 14.5386C5.31318 17.3056 6.26392 19.8358 8.02101 21.6644C9.71715 23.425 12.0443 24.3941 14.5767 24.3941H14.7072C19.0203 24.3941 22.4981 21.3103 23.1643 16.8945L23.2135 16.5656H19.0363L18.9978 16.8035Z" fill="white"/>
<path d="M44.8984 20.521C44.8738 20.1121 44.7518 19.1123 44.6481 18.3735C44.4246 16.9362 43.9081 16.0713 42.9605 15.5922C44.4385 14.702 45.2149 13.1651 45.2149 11.1085C45.2149 7.34056 42.9006 5.17871 38.8667 5.17871H30.3604V23.9557H34.4189V17.0393H37.9769C40.1361 17.1489 40.1426 17.1906 40.5062 19.4916L40.6409 20.5506C40.8152 22.0109 40.9318 22.9756 41.2933 23.7912L41.366 23.9557H45.5283V23.3856L45.5069 23.3319C45.0877 22.3398 45.0074 21.7708 44.8984 20.521ZM34.4178 9.22286H38.1684C39.4795 9.22286 41.043 9.57805 41.043 11.2707C41.043 12.6443 40.1137 13.3405 38.2806 13.3405H34.4189L34.4178 9.22286Z" fill="white"/>
<path d="M51.0277 16.4166H60.3393V12.5566H51.0277V9.22286H61.1264V5.17871H46.9702V23.9557H61.2387V19.9115H51.0277V16.4166Z" fill="white"/>
<path d="M70.3931 5.17871L62.3926 23.9557H66.7773L68.3504 20.1516H76.7135L78.2834 23.9557H82.6681L74.6655 5.17871H70.3931ZM70.0241 16.1075L72.5491 10.1382L75.0366 16.1075H70.0241Z" fill="white"/>
<path d="M96.5429 5.17871H79.0811V9.24698H85.7833V23.9557H89.8407V9.24698H96.5429V5.17871Z" fill="white"/>
<path d="M105.673 4.80933H105.404C102.772 4.80933 100.378 5.7883 98.6668 7.56645C96.9556 9.3446 96.0359 11.797 96.0648 14.4708C96.0317 17.2356 96.977 19.757 98.7266 21.5735C100.438 23.3484 102.809 24.3263 105.405 24.3263H105.671C108.204 24.3263 110.528 23.3637 112.21 21.6163C113.965 19.7943 114.912 17.2575 114.884 14.4784C114.917 11.7739 113.991 9.30404 112.276 7.5237C110.59 5.76966 108.246 4.80933 105.678 4.80933H105.673ZM105.539 20.281C102.403 20.281 100.214 17.8462 100.214 14.3611C100.214 11.1206 102.403 8.85676 105.539 8.85676C108.595 8.85676 110.73 11.1206 110.73 14.3611C110.73 17.8473 108.591 20.281 105.539 20.281Z" fill="white"/>
<path d="M130.724 20.521C130.7 20.1187 130.58 19.1376 130.473 18.3735C130.25 16.9362 129.733 16.0713 128.786 15.5922C130.264 14.702 131.039 13.1651 131.039 11.1085C131.039 7.34056 128.726 5.17871 124.691 5.17871H116.186V23.9557H120.243V17.0393H123.801C125.96 17.1489 125.968 17.1906 126.331 19.4916L126.466 20.5506C126.64 22.0109 126.757 22.9756 127.117 23.7912L127.191 23.9557H131.353V23.3856L131.332 23.3319C130.913 22.3387 130.833 21.7697 130.724 20.521ZM120.243 9.22286H123.995C125.306 9.22286 126.868 9.57805 126.868 11.2707C126.868 12.6443 125.94 13.3405 124.108 13.3405H120.243V9.22286Z" fill="white"/>
<path d="M146.27 14.859C145.552 14.0719 144.773 13.5643 143.872 13.3056C143.017 13.0589 141.883 12.8451 140.389 12.6478C139.38 12.5283 138.61 12.3825 138.143 12.2838C136.646 11.9308 136.466 11.1876 136.466 10.6679C136.466 9.03339 138.115 8.69464 139.498 8.69464C141.395 8.69464 142.519 9.55412 142.666 11.1141L142.689 11.3685H147.082V11.0867C147.082 7.33307 144.062 4.81165 139.566 4.81165C135.149 4.81165 132.293 7.13026 132.293 10.7184C132.293 12.1687 132.644 13.2891 133.329 14.0401C133.961 14.7987 134.797 15.3494 135.733 15.6231C136.867 15.9332 138.022 16.1596 139.188 16.3006C140.275 16.4519 141.025 16.5955 141.457 16.6865C142.92 17.0384 143.091 17.7652 143.091 18.2805C143.091 19.6343 141.847 20.4434 139.766 20.4434C137.601 20.4434 136.324 19.3647 136.262 17.4835L136.252 17.2127H131.777V17.4944C131.777 21.6416 134.878 24.3231 139.676 24.3231C144.297 24.3231 147.283 21.9321 147.283 18.2311C147.283 16.784 146.942 15.6516 146.264 14.8568" fill="white"/>
<path d="M14.2749 29.2705C6.40383 29.2705 0 22.7027 0 14.633C0 6.56338 6.40383 0 14.2749 0C22.146 0 28.5541 6.56448 28.5541 14.633C28.5541 22.7016 22.1471 29.2705 14.2749 29.2705ZM14.2749 2.81961C11.9949 2.81961 9.76601 3.51274 7.87025 4.81132C5.97448 6.1099 4.49697 7.95562 3.62458 10.115C2.75218 12.2744 2.52408 14.6506 2.96913 16.9429C3.41419 19.2352 4.5124 21.3407 6.12487 22.9932C7.73735 24.6457 9.79166 25.7708 12.028 26.2264C14.2643 26.682 16.5822 26.4475 18.6886 25.5526C20.7949 24.6577 22.595 23.1426 23.8613 21.199C25.1276 19.2553 25.8031 16.9703 25.8025 14.633C25.7991 11.5002 24.5834 8.49673 22.4223 6.2816C20.2612 4.06646 17.3311 2.82061 14.2749 2.81742" fill="white"/>
</g>
</g>
<defs>
<clipPath id="clip0_151_8117">
<rect width="147.289" height="30" fill="white"/>
</clipPath>
<clipPath id="clip1_151_8117">
<rect width="147.289" height="30" fill="white"/>
</clipPath>
</defs>
</svg>
