<svg width="24" height="25" viewBox="0 0 24 25" fill="none" xmlns="http://www.w3.org/2000/svg">
<path fill-rule="evenodd" clip-rule="evenodd" d="M10.0541 2.84434C11.1754 1.8888 12.8245 1.8888 13.9458 2.84434L15.2173 3.92788C15.3774 4.06437 15.5766 4.14685 15.7863 4.16359L17.4516 4.29648C18.9201 4.41367 20.0863 5.5798 20.2034 7.04833L20.3363 8.71357C20.3531 8.92334 20.4356 9.12248 20.572 9.28264L21.6556 10.5541C22.6111 11.6754 22.6111 13.3245 21.6556 14.4458L20.572 15.7173C20.4356 15.8774 20.3531 16.0766 20.3363 16.2863L20.2034 17.9516C20.0863 19.4201 18.9201 20.5863 17.4516 20.7034L15.7863 20.8363C15.5766 20.8531 15.3774 20.9356 15.2173 21.072L13.9458 22.1556C12.8245 23.1111 11.1754 23.1111 10.0541 22.1556L8.78264 21.072C8.62248 20.9356 8.42334 20.8531 8.21357 20.8363L6.54833 20.7034C5.0798 20.5863 3.91367 19.4201 3.79648 17.9516L3.66359 16.2863C3.64685 16.0766 3.56437 15.8774 3.42788 15.7173L2.34434 14.4458C1.3888 13.3245 1.3888 11.6754 2.34434 10.5541L3.42788 9.28264C3.56437 9.12248 3.64685 8.92334 3.66359 8.71357L3.79648 7.04833C3.91367 5.5798 5.0798 4.41367 6.54833 4.29648L8.21357 4.16359C8.42334 4.14685 8.62248 4.06437 8.78264 3.92788L10.0541 2.84434ZM12.6486 4.36657C12.2748 4.04806 11.7251 4.04806 11.3513 4.36657L10.0799 5.45011C9.59939 5.85958 9.00197 6.10704 8.37267 6.15726L6.70743 6.29014C6.21792 6.32921 5.82921 6.71792 5.79014 7.20743L5.65726 8.87267C5.60704 9.50197 5.35958 10.0994 4.95011 10.5799L3.86657 11.8513C3.54806 12.2251 3.54806 12.7748 3.86657 13.1486L4.95011 14.42C5.35958 14.9005 5.60704 15.498 5.65726 16.1273L5.79014 17.7925C5.82921 18.282 6.21792 18.6707 6.70743 18.7098L8.37267 18.8427C9.00197 18.8929 9.59939 19.1403 10.0799 19.5498L11.3513 20.6334C11.7251 20.9519 12.2748 20.9519 12.6486 20.6334L13.92 19.5498C14.4005 19.1403 14.998 18.8929 15.6273 18.8427L17.2925 18.7098C17.782 18.6707 18.1707 18.282 18.2098 17.7925L18.3427 16.1273C18.3929 15.498 18.6403 14.9005 19.0498 14.42L20.1334 13.1486C20.4519 12.7748 20.4519 12.2251 20.1334 11.8513L19.0498 10.5799C18.6403 10.0994 18.3929 9.50197 18.3427 8.87267L18.2098 7.20743C18.1707 6.71792 17.782 6.32921 17.2925 6.29014L15.6273 6.15726C14.998 6.10704 14.4005 5.85958 13.92 5.45011L12.6486 4.36657Z" fill="white"/>
<path d="M11 10C11 10.8284 10.3284 11.5 9.5 11.5C8.67157 11.5 8 10.8284 8 10C8 9.17157 8.67157 8.5 9.5 8.5C10.3284 8.5 11 9.17157 11 10Z" fill="white"/>
<path d="M16 15C16 15.8284 15.3284 16.5 14.5 16.5C13.6716 16.5 13 15.8284 13 15C13 14.1716 13.6716 13.5 14.5 13.5C15.3284 13.5 16 14.1716 16 15Z" fill="white"/>
<path fill-rule="evenodd" clip-rule="evenodd" d="M15.1402 8.7318C15.5645 9.08537 15.6218 9.71593 15.2682 10.1402L10.2682 16.1402C9.91468 16.5645 9.28412 16.6218 8.85984 16.2682C8.43556 15.9147 8.37824 15.2841 8.7318 14.8598L13.7318 8.85984C14.0854 8.43556 14.7159 8.37824 15.1402 8.7318Z" fill="white"/>
</svg>
