<svg width="46" height="46" viewBox="0 0 46 46" fill="none" xmlns="http://www.w3.org/2000/svg">
<path d="M30.6042 26.2922C30.0581 29.7109 27.298 31.8361 23.3958 31.8361C18.4702 31.8361 15.2881 28.1997 15.2881 22.5734C15.2881 17.2559 18.4219 13.959 23.4682 13.959C27.0362 13.959 29.71 15.9419 30.2786 19.0106L30.3475 19.3709H37.0511L36.9856 18.8734C36.1104 12.1476 30.7369 7.62943 23.618 7.62943H23.401C19.3075 7.62943 15.5517 9.14406 12.8244 11.8937C10.0489 14.6931 8.55002 18.5526 8.61377 22.7483C8.55864 27.0778 10.0902 31.0368 12.9209 33.898C15.6533 36.6528 19.4022 38.1691 23.4819 38.1691H23.6921C30.6404 38.1691 36.2431 33.3439 37.3164 26.4346L37.3957 25.92H30.6662L30.6042 26.2922Z" fill="white"/>
<path d="M22.9966 45.7993C10.3164 45.7993 0 35.5227 0 22.8962C0 10.2697 10.3164 0 22.9966 0C35.6767 0 46 10.2714 46 22.8962C46 35.521 35.6784 45.7993 22.9966 45.7993ZM22.9966 4.41182C19.3234 4.41182 15.7328 5.49635 12.6788 7.52823C9.62474 9.56011 7.24451 12.4481 5.8391 15.8269C4.43369 19.2057 4.06623 22.9236 4.7832 26.5104C5.50017 30.0971 7.26936 33.3916 9.86701 35.9772C12.4647 38.5628 15.7741 40.3234 19.3768 41.0362C22.9795 41.7491 26.7135 41.3822 30.1068 39.982C33.5 38.5817 36.4 36.2111 38.4399 33.1698C40.4799 30.1286 41.5681 26.5533 41.5671 22.8962C41.5616 17.9943 39.6033 13.2948 36.1218 9.82876C32.6403 6.36275 27.9199 4.41339 22.9966 4.40839" fill="white"/>
</svg>
