<svg width="43" height="43" viewBox="0 0 43 43" fill="none" xmlns="http://www.w3.org/2000/svg">
<circle cx="21.345" cy="21.345" r="21.345" fill="#7E7E7E"/>
<path d="M30.375 18.6118C28.5688 18.6161 26.8068 18.0528 25.3381 17.0015V24.3337C25.3376 25.6917 24.9225 27.0171 24.1483 28.1329C23.3741 29.2486 22.2777 30.1014 21.0058 30.5772C19.7338 31.0531 18.3469 31.1292 17.0305 30.7956C15.7141 30.4619 14.5309 29.7344 13.6392 28.7101C12.7474 27.6859 12.1896 26.4139 12.0404 25.0641C11.8912 23.7143 12.1576 22.3512 12.804 21.1569C13.4504 19.9626 14.4461 18.9941 15.6578 18.3809C16.8695 17.7678 18.2396 17.5391 19.5848 17.7256V21.4134C18.9692 21.2198 18.3082 21.2257 17.6962 21.4301C17.0841 21.6345 16.5523 22.0272 16.1767 22.5519C15.8011 23.0766 15.6009 23.7065 15.6047 24.3518C15.6085 24.997 15.8161 25.6246 16.1979 26.1448C16.5796 26.6651 17.116 27.0514 17.7304 27.2486C18.3448 27.4458 19.0059 27.4439 19.6191 27.243C20.2323 27.0422 20.7664 26.6527 21.1451 26.1302C21.5238 25.6077 21.7276 24.9789 21.7276 24.3337V10H25.3381C25.3355 10.3049 25.3611 10.6093 25.4144 10.9095C25.5398 11.5797 25.8007 12.2172 26.181 12.7831C26.5613 13.349 27.053 13.8313 27.6262 14.2007C28.4415 14.7398 29.3975 15.0271 30.375 15.0269V18.6118Z" fill="white"/>
</svg>
