<svg width="43" height="43" viewBox="0 0 43 43" fill="none" xmlns="http://www.w3.org/2000/svg">
<circle cx="21.345" cy="21.345" r="21.345" fill="#7E7E7E"/>
<path d="M31.5194 15.5491C31.2549 14.5457 30.4755 13.7555 29.4859 13.4873C27.6923 13 20.5 13 20.5 13C20.5 13 13.3077 13 11.514 13.4873C10.5245 13.7555 9.74513 14.5457 9.48061 15.5491C9 17.3678 9 21.1623 9 21.1623C9 21.1623 9 24.9568 9.48061 26.7755C9.74513 27.7789 10.5245 28.5362 11.514 28.8044C13.3077 29.2917 20.5 29.2917 20.5 29.2917C20.5 29.2917 27.6923 29.2917 29.4859 28.8044C30.4755 28.5362 31.2549 27.7789 31.5194 26.7755C32 24.9568 32 21.1623 32 21.1623C32 21.1623 32 17.3678 31.5194 15.5491ZM18.1477 24.6074V17.7172L24.159 21.1624L18.1477 24.6074Z" fill="white"/>
</svg>
